<?xml version="1.0" encoding="utf-8"?>
<!-- Generator: Adobe Illustrator 28.0.0, SVG Export Plug-In . SVG Version: 6.00 Build 0)  -->
<svg version="1.1" id="Layer_1" xmlns="http://www.w3.org/2000/svg" xmlns:xlink="http://www.w3.org/1999/xlink" x="0px" y="0px"
	 viewBox="0 0 60.3 60.3" style="enable-background:new 0 0 60.3 60.3;" xml:space="preserve">
<style type="text/css">
	.st0{fill:none;}
	.st1{fill:#FF6900;}
</style>
<g>
	<path class="st0" d="M25.4,21.5c4.3-4.3,14.1-8.1,17.7-4.4S43,30.6,38.8,34.8c-4.8,4.8-9.9,5-13.6,2.1L14,50.5
		c10.2,8.1,25.1,7.4,34.5-2c10.1-10.1,10.1-26.6,0-36.8s-26.6-10.1-36.8,0c-9.4,9.4-10.1,24.3-2,34.5l13.6-11.1
		C20.5,31.5,20.6,26.3,25.4,21.5L25.4,21.5z"/>
	<path class="st1" d="M51.5,51.5c11.8-11.8,11.8-30.9,0-42.6S20.6-2.9,8.8,8.8C-2.1,19.8-2.9,37.1,6.5,48.9l3.2-2.6
		c-8.1-10.2-7.4-25.1,2-34.5c10.1-10.1,26.6-10.1,36.8,0s10.1,26.6,0,36.8c-9.4,9.4-24.3,10.1-34.5,2l-2.6,3.2
		C23.2,63.1,40.5,62.4,51.5,51.5z"/>
	<path class="st1" d="M14,50.5L25.2,37c3.6,2.8,8.8,2.7,13.6-2.1c4.3-4.3,8.1-14,4.4-17.7s-13.5,0.2-17.7,4.4
		c-4.8,4.8-5,9.9-2.1,13.6L9.7,46.3c0.6,0.8,1.3,1.5,2,2.3S13.2,49.9,14,50.5z"/>
	<path class="st1" d="M11.8,48.5c-0.7-0.7-1.4-1.5-2-2.3l-3.2,2.6c0.7,0.9,1.5,1.8,2.3,2.6s1.7,1.6,2.6,2.3l2.6-3.2
		C13.2,49.9,12.5,49.2,11.8,48.5z"/>
</g>
</svg>
