<?xml version="1.0" encoding="utf-8"?>
<!-- Generator: Adobe Illustrator 28.0.0, SVG Export Plug-In . SVG Version: 6.00 Build 0)  -->
<svg version="1.1" id="Layer_1" xmlns="http://www.w3.org/2000/svg" xmlns:xlink="http://www.w3.org/1999/xlink" x="0px" y="0px"
	 viewBox="0 0 188.9 60.3" style="enable-background:new 0 0 188.9 60.3;" xml:space="preserve">
<style type="text/css">
	.st0{fill:none;}
	.st1{fill:#FF6900;}
</style>
<g>
	<path class="st0" d="M25.4,21.5c4.3-4.3,14.1-8.1,17.7-4.4S43,30.6,38.8,34.8c-4.8,4.8-9.9,5-13.6,2.1L14,50.5
		c10.2,8.1,25.1,7.4,34.5-2c10.1-10.1,10.1-26.6,0-36.8s-26.6-10.1-36.8,0c-9.4,9.4-10.1,24.3-2,34.5l13.6-11.1
		C20.5,31.5,20.6,26.3,25.4,21.5L25.4,21.5z"/>
	<path class="st1" d="M51.5,51.5c11.8-11.8,11.8-30.9,0-42.6S20.6-2.9,8.8,8.8C-2.1,19.8-2.9,37.1,6.5,48.9l3.2-2.6
		c-8.1-10.2-7.4-25.1,2-34.5c10.1-10.1,26.6-10.1,36.8,0s10.1,26.6,0,36.8c-9.4,9.4-24.3,10.1-34.5,2l-2.6,3.2
		C23.2,63.1,40.5,62.4,51.5,51.5z"/>
	<path class="st1" d="M14,50.5L25.2,37c3.6,2.8,8.8,2.7,13.6-2.1c4.3-4.3,8.1-14,4.4-17.7s-13.5,0.2-17.7,4.4
		c-4.8,4.8-5,9.9-2.1,13.6L9.7,46.3c0.6,0.8,1.3,1.5,2,2.3S13.2,49.9,14,50.5z"/>
	<path class="st1" d="M11.8,48.5c-0.7-0.7-1.4-1.5-2-2.3l-3.2,2.6c0.7,0.9,1.5,1.8,2.3,2.6s1.7,1.6,2.6,2.3l2.6-3.2
		C13.2,49.9,12.5,49.2,11.8,48.5z"/>
</g>
<g>
	<path class="st1" d="M64.9,33.8h4.5c0.1,0.5,0.2,0.9,0.5,1.3s0.6,0.7,1,1c0.4,0.3,0.9,0.5,1.5,0.7s1.2,0.2,1.9,0.2
		c1,0,1.8-0.1,2.5-0.4s1.2-0.7,1.5-1.2c0.3-0.5,0.5-1.1,0.5-1.7c0-0.8-0.3-1.5-0.9-1.9s-1.5-0.9-2.8-1.1l-3.7-0.9
		c-1.2-0.3-2.3-0.7-3.2-1.3c-0.9-0.6-1.6-1.3-2.1-2.2s-0.7-1.9-0.7-3.1c0-1.5,0.4-2.7,1.1-3.8c0.8-1.1,1.8-1.9,3.1-2.5
		c1.3-0.6,2.9-0.9,4.6-0.9s3.3,0.3,4.6,0.9s2.3,1.4,3,2.4s1.1,2.1,1.2,3.4h-4.4c-0.1-0.6-0.3-1.1-0.7-1.5c-0.4-0.5-0.9-0.8-1.5-1.1
		s-1.3-0.4-2.2-0.4c-1.3,0-2.3,0.3-3,0.9c-0.7,0.6-1.1,1.4-1.1,2.3c0,0.7,0.3,1.3,0.8,1.8c0.6,0.5,1.4,0.8,2.4,1l3.7,0.9
		c1.3,0.3,2.4,0.7,3.4,1.2c0.9,0.5,1.7,1.2,2.2,2.1c0.5,0.9,0.8,2,0.8,3.3c0,1.5-0.4,2.8-1.1,3.9c-0.7,1.1-1.8,2-3.2,2.6
		c-1.4,0.6-3.1,0.9-5.1,0.9c-1.5,0-2.8-0.2-3.9-0.5c-1.1-0.4-2.1-0.9-2.8-1.5s-1.3-1.4-1.7-2.2C65.2,35.7,64.9,34.8,64.9,33.8
		L64.9,33.8z"/>
	<path class="st1" d="M96.1,40.5c-0.8,0-1.6-0.1-2.3-0.4c-0.7-0.2-1.3-0.6-1.8-1s-0.9-1-1.2-1.7h-0.2v8.9H86V21.8h4.5v2.9h0.2
		c0.2-0.5,0.4-0.9,0.8-1.3c0.3-0.4,0.7-0.7,1.2-1s1-0.5,1.6-0.6c0.6-0.1,1.2-0.2,1.8-0.2c1.4,0,2.7,0.3,3.7,1c1,0.7,1.8,1.6,2.4,2.8
		c0.5,1.2,0.8,2.7,0.8,4.4v2.5c0,1.7-0.3,3.2-0.8,4.4c-0.6,1.2-1.3,2.2-2.4,2.8C98.7,40.2,97.5,40.5,96.1,40.5L96.1,40.5z
		 M94.5,36.9c0.8,0,1.5-0.2,2.1-0.6s1-1,1.3-1.7c0.3-0.8,0.4-1.7,0.4-2.7v-1.6c0-1.1-0.2-2-0.4-2.7c-0.3-0.8-0.7-1.3-1.3-1.7
		s-1.3-0.6-2.1-0.6s-1.5,0.2-2.1,0.6s-1,0.9-1.3,1.6S90.6,29,90.6,30v2.4c0,0.9,0.2,1.7,0.5,2.4c0.3,0.7,0.8,1.2,1.4,1.6
		C93,36.7,93.7,36.9,94.5,36.9z"/>
	<path class="st1" d="M145.9,40.3V21.8h4.5v3.2h0.2c0.1-0.5,0.4-1,0.8-1.5c0.4-0.5,1-1,1.7-1.4c0.8-0.4,1.7-0.6,2.9-0.6
		c1.9,0,3.3,0.5,4.5,1.6c1.1,1.1,1.7,2.7,1.7,4.8v12.4h-4.6V29.2c0-0.9-0.1-1.6-0.4-2.2c-0.3-0.6-0.7-1-1.2-1.2s-1.1-0.4-1.7-0.4
		c-0.8,0-1.5,0.2-2.1,0.6s-1,0.9-1.3,1.6c-0.3,0.7-0.4,1.5-0.4,2.4v10.2L145.9,40.3L145.9,40.3z"/>
	<path class="st1" d="M164.9,16.4c0-0.8,0.3-1.4,0.8-1.9s1.2-0.7,2.1-0.7s1.6,0.2,2.1,0.7c0.5,0.5,0.8,1.1,0.8,1.9s-0.3,1.4-0.8,1.8
		s-1.2,0.7-2.1,0.7s-1.5-0.2-2.1-0.7C165.2,17.8,164.9,17.1,164.9,16.4z M165.5,40.3V21.8h4.6v18.5H165.5z"/>
	<path class="st1" d="M181,40.6c-1.7,0-3.2-0.3-4.4-1c-1.3-0.7-2.2-1.6-2.9-2.9s-1-2.8-1-4.6V30c0-1.8,0.4-3.4,1.1-4.6
		c0.7-1.3,1.7-2.2,2.9-2.9c1.2-0.6,2.6-1,4.2-1s3,0.3,4.2,1s2.2,1.7,2.9,2.9s1,2.8,1,4.5v2.1h-11.8V33c0,1.2,0.4,2.2,1.1,3
		c0.7,0.8,1.7,1.2,2.9,1.2c0.6,0,1.2-0.1,1.7-0.3s0.9-0.4,1.2-0.7s0.5-0.7,0.6-1h4.4c-0.1,0.6-0.2,1.2-0.6,1.8s-0.8,1.2-1.4,1.8
		s-1.4,1-2.4,1.4S182.4,40.6,181,40.6L181,40.6z M177.1,29.3h7.4v-0.2c0-0.8-0.1-1.6-0.5-2.2c-0.3-0.6-0.7-1.1-1.3-1.5
		s-1.2-0.5-1.9-0.5s-1.4,0.2-1.9,0.5s-1,0.8-1.3,1.5s-0.5,1.4-0.5,2.2V29.3z"/>
	<path class="st1" d="M114.3,25.8c2.9,0,5.2,2.3,5.2,5.2s-2.3,5.2-5.2,5.2s-5.2-2.3-5.2-5.2S111.4,25.8,114.3,25.8 M114.3,21.6
		c-5.2,0-9.3,4.2-9.3,9.3s4.2,9.3,9.3,9.3s9.3-4.2,9.3-9.3S119.4,21.6,114.3,21.6C114.3,21.6,114.3,21.6,114.3,21.6z"/>
	<path class="st1" d="M134.5,25.8c2.9,0,5.2,2.3,5.2,5.2s-2.3,5.2-5.2,5.2s-5.2-2.3-5.2-5.2S131.7,25.8,134.5,25.8 M134.5,21.6
		c-5.2,0-9.3,4.2-9.3,9.3s4.2,9.3,9.3,9.3s9.3-4.2,9.3-9.3S139.7,21.6,134.5,21.6C134.5,21.6,134.5,21.6,134.5,21.6z"/>
</g>
</svg>
